<?xml version="1.0" encoding="utf-8"?>
<!-- Generator: Adobe Illustrator 24.3.0, SVG Export Plug-In . SVG Version: 6.00 Build 0)  -->
<svg version="1.1" id="Layer_1" xmlns="http://www.w3.org/2000/svg" xmlns:xlink="http://www.w3.org/1999/xlink" x="0px" y="0px"
	 viewBox="0 0 190 50" style="enable-background:new 0 0 190 50;" xml:space="preserve">
<style type="text/css">
	.st0{clip-path:url(#SVGID_2_);}
	.st1{clip-path:url(#SVGID_4_);}
	.st2{clip-path:url(#SVGID_4_);fill-rule:evenodd;clip-rule:evenodd;fill:#A5C9CA;}
	.st3{clip-path:url(#SVGID_4_);fill-rule:evenodd;clip-rule:evenodd;fill:#395B64;}
	.st4{clip-path:url(#SVGID_4_);fill:#E32328;}
	.st5{clip-path:url(#SVGID_4_);fill:#B2CFD1;}
	.st6{clip-path:url(#SVGID_4_);fill:#2B2A29;}
	.st7{clip-path:url(#SVGID_4_);fill:#435E68;}
	.st8{clip-path:url(#SVGID_4_);fill:#3C3F3D;}
	.st9{clip-path:url(#SVGID_4_);fill:#425F68;}
	.st10{clip-path:url(#SVGID_4_);fill-rule:evenodd;clip-rule:evenodd;fill:#47636B;}
</style>
<g>
	<g>
		<defs>
			<rect id="SVGID_1_" x="20.67" y="-12.16" width="148.65" height="74.33"/>
		</defs>
		<clipPath id="SVGID_2_">
			<use xlink:href="#SVGID_1_"  style="overflow:visible;"/>
		</clipPath>
		<g class="st0">
			<defs>
				<rect id="SVGID_3_" x="20.67" y="-12.16" width="148.65" height="74.33"/>
			</defs>
			<clipPath id="SVGID_4_">
				<use xlink:href="#SVGID_3_"  style="overflow:visible;"/>
			</clipPath>
			<path class="st1" d="M154.91,46.14l-0.56-1.85c-0.03-0.08-0.05-0.16-0.07-0.23c-0.02-0.08-0.04-0.15-0.06-0.22
				c-0.02-0.07-0.03-0.14-0.05-0.2c-0.01-0.06-0.03-0.11-0.04-0.16h-0.02c-0.01,0.04-0.02,0.1-0.03,0.16
				c-0.01,0.06-0.03,0.13-0.05,0.2c-0.02,0.07-0.04,0.15-0.06,0.22c-0.02,0.08-0.05,0.16-0.07,0.24l-0.59,1.84h-0.54l-0.87-3.17h0.5
				l0.46,1.75c0.03,0.12,0.06,0.23,0.09,0.34c0.03,0.11,0.05,0.22,0.07,0.32c0.02,0.1,0.03,0.19,0.04,0.26h0.02
				c0.01-0.05,0.02-0.11,0.04-0.17c0.01-0.07,0.03-0.14,0.05-0.22c0.02-0.08,0.04-0.15,0.06-0.23c0.02-0.08,0.04-0.15,0.06-0.22
				l0.58-1.84h0.52l0.56,1.84c0.03,0.09,0.06,0.19,0.09,0.29c0.03,0.1,0.05,0.2,0.08,0.29c0.02,0.09,0.04,0.18,0.05,0.25h0.02
				c0.01-0.07,0.02-0.15,0.04-0.24c0.02-0.1,0.05-0.2,0.07-0.32c0.03-0.12,0.06-0.23,0.09-0.35l0.46-1.75h0.49l-0.88,3.17H154.91z
				 M149.08,44.55c0,0.25,0.03,0.48,0.1,0.66c0.07,0.19,0.17,0.33,0.31,0.43c0.14,0.1,0.32,0.15,0.54,0.15
				c0.22,0,0.4-0.05,0.54-0.15c0.14-0.1,0.25-0.25,0.31-0.43c0.07-0.19,0.1-0.41,0.1-0.66c0-0.25-0.03-0.47-0.1-0.66
				c-0.07-0.18-0.17-0.33-0.31-0.43c-0.14-0.1-0.32-0.15-0.55-0.15c-0.33,0-0.57,0.11-0.73,0.33
				C149.16,43.86,149.08,44.16,149.08,44.55 M151.49,44.55c0,0.26-0.03,0.49-0.1,0.7c-0.07,0.2-0.17,0.38-0.29,0.52
				c-0.13,0.14-0.28,0.25-0.46,0.32c-0.18,0.07-0.39,0.11-0.61,0.11c-0.21,0-0.41-0.04-0.58-0.11c-0.18-0.07-0.33-0.18-0.46-0.32
				c-0.13-0.14-0.23-0.31-0.3-0.52c-0.07-0.21-0.11-0.44-0.11-0.7c0-0.35,0.06-0.64,0.18-0.89c0.12-0.25,0.29-0.43,0.51-0.56
				c0.22-0.13,0.48-0.19,0.78-0.19c0.29,0,0.54,0.06,0.76,0.19c0.22,0.13,0.39,0.32,0.51,0.56
				C151.43,43.91,151.49,44.2,151.49,44.55 M147.78,42.91c0.06,0,0.13,0,0.2,0.01c0.07,0.01,0.13,0.02,0.18,0.03l-0.06,0.45
				c-0.05-0.01-0.11-0.02-0.17-0.03c-0.06-0.01-0.12-0.01-0.18-0.01c-0.13,0-0.25,0.03-0.36,0.08c-0.11,0.05-0.21,0.12-0.3,0.22
				c-0.08,0.09-0.15,0.21-0.2,0.34c-0.05,0.13-0.07,0.28-0.07,0.45v1.7h-0.48v-3.17h0.4l0.05,0.58h0.02
				c0.07-0.12,0.15-0.23,0.24-0.32c0.09-0.1,0.2-0.18,0.32-0.23C147.49,42.94,147.63,42.91,147.78,42.91 M145.35,42.91
				c0.06,0,0.13,0,0.2,0.01c0.07,0.01,0.13,0.02,0.18,0.03l-0.06,0.45c-0.05-0.01-0.11-0.02-0.17-0.03
				c-0.06-0.01-0.12-0.01-0.18-0.01c-0.13,0-0.25,0.03-0.36,0.08c-0.11,0.05-0.21,0.12-0.3,0.22c-0.09,0.09-0.15,0.21-0.2,0.34
				c-0.05,0.13-0.07,0.28-0.07,0.45v1.7h-0.48v-3.17h0.4l0.05,0.58h0.02c0.07-0.12,0.15-0.23,0.24-0.32c0.09-0.1,0.2-0.18,0.32-0.23
				C145.07,42.94,145.2,42.91,145.35,42.91 M140.67,44.55c0,0.25,0.03,0.48,0.1,0.66c0.07,0.19,0.17,0.33,0.31,0.43
				c0.14,0.1,0.32,0.15,0.54,0.15c0.22,0,0.4-0.05,0.54-0.15c0.14-0.1,0.25-0.25,0.31-0.43c0.07-0.19,0.1-0.41,0.1-0.66
				c0-0.25-0.03-0.47-0.1-0.66c-0.07-0.18-0.17-0.33-0.31-0.43c-0.14-0.1-0.32-0.15-0.55-0.15c-0.33,0-0.57,0.11-0.73,0.33
				C140.74,43.86,140.67,44.16,140.67,44.55 M143.08,44.55c0,0.26-0.03,0.49-0.1,0.7c-0.07,0.2-0.16,0.38-0.29,0.52
				c-0.13,0.14-0.28,0.25-0.46,0.32c-0.18,0.07-0.39,0.11-0.61,0.11c-0.21,0-0.41-0.04-0.58-0.11c-0.18-0.07-0.33-0.18-0.46-0.32
				c-0.13-0.14-0.23-0.31-0.3-0.52c-0.07-0.21-0.11-0.44-0.11-0.7c0-0.35,0.06-0.64,0.18-0.89c0.12-0.25,0.29-0.43,0.5-0.56
				c0.22-0.13,0.48-0.19,0.78-0.19c0.29,0,0.54,0.06,0.76,0.19c0.22,0.13,0.39,0.32,0.51,0.56
				C143.02,43.91,143.08,44.2,143.08,44.55 M138.3,42.91c0.35,0,0.61,0.09,0.79,0.27c0.18,0.18,0.27,0.48,0.27,0.88v2.08h-0.47
				v-2.06c0-0.26-0.06-0.45-0.17-0.58c-0.11-0.13-0.27-0.19-0.49-0.19c-0.31,0-0.53,0.09-0.67,0.27c-0.14,0.18-0.21,0.44-0.21,0.78
				v1.77h-0.48v-2.06c0-0.17-0.02-0.32-0.07-0.43c-0.05-0.11-0.12-0.2-0.22-0.26c-0.1-0.06-0.22-0.09-0.37-0.09
				c-0.21,0-0.38,0.04-0.51,0.13c-0.13,0.09-0.22,0.22-0.28,0.39c-0.06,0.17-0.09,0.38-0.09,0.63v1.68h-0.48v-3.17h0.39l0.07,0.45
				h0.03c0.06-0.11,0.14-0.2,0.24-0.28c0.1-0.08,0.2-0.13,0.32-0.17c0.12-0.04,0.25-0.06,0.38-0.06c0.24,0,0.44,0.04,0.61,0.13
				c0.16,0.09,0.28,0.23,0.35,0.41h0.03c0.1-0.18,0.25-0.32,0.43-0.41C137.89,42.95,138.08,42.91,138.3,42.91 M131.61,44.55
				c0,0.25,0.03,0.48,0.1,0.66c0.07,0.19,0.17,0.33,0.31,0.43c0.14,0.1,0.32,0.15,0.54,0.15c0.22,0,0.4-0.05,0.54-0.15
				c0.14-0.1,0.25-0.25,0.31-0.43c0.07-0.19,0.1-0.41,0.1-0.66c0-0.25-0.03-0.47-0.1-0.66c-0.07-0.18-0.17-0.33-0.31-0.43
				c-0.14-0.1-0.32-0.15-0.55-0.15c-0.33,0-0.57,0.11-0.73,0.33C131.69,43.86,131.61,44.16,131.61,44.55 M134.03,44.55
				c0,0.26-0.03,0.49-0.1,0.7c-0.07,0.2-0.17,0.38-0.29,0.52c-0.13,0.14-0.28,0.25-0.46,0.32c-0.18,0.07-0.39,0.11-0.61,0.11
				c-0.21,0-0.41-0.04-0.58-0.11c-0.18-0.07-0.33-0.18-0.46-0.32c-0.13-0.14-0.23-0.31-0.3-0.52c-0.07-0.21-0.11-0.44-0.11-0.7
				c0-0.35,0.06-0.64,0.18-0.89c0.12-0.25,0.29-0.43,0.5-0.56c0.22-0.13,0.48-0.19,0.78-0.19c0.29,0,0.54,0.06,0.76,0.19
				c0.22,0.13,0.39,0.32,0.51,0.56C133.97,43.91,134.03,44.2,134.03,44.55 M129.4,46.14h-0.5v-3.8h-1.33v-0.43h3.15v0.43h-1.33
				V46.14z M124.35,42.91c0.38,0,0.66,0.09,0.85,0.28c0.19,0.18,0.29,0.48,0.29,0.89v2.07h-0.47V44.1c0-0.26-0.06-0.46-0.18-0.59
				c-0.12-0.13-0.31-0.2-0.55-0.2c-0.35,0-0.6,0.1-0.74,0.3c-0.14,0.2-0.21,0.49-0.21,0.87v1.66h-0.48v-3.17h0.39l0.07,0.46h0.03
				c0.07-0.11,0.15-0.21,0.26-0.28c0.1-0.08,0.22-0.13,0.35-0.17C124.07,42.93,124.21,42.91,124.35,42.91 M121.87,42.91
				c0.06,0,0.13,0,0.2,0.01c0.07,0.01,0.13,0.02,0.18,0.03l-0.06,0.45c-0.05-0.01-0.11-0.02-0.17-0.03
				c-0.06-0.01-0.12-0.01-0.18-0.01c-0.13,0-0.25,0.03-0.36,0.08c-0.11,0.05-0.21,0.12-0.3,0.22c-0.08,0.09-0.15,0.21-0.2,0.34
				c-0.05,0.13-0.07,0.28-0.07,0.45v1.7h-0.48v-3.17h0.4l0.05,0.58h0.02c0.07-0.12,0.15-0.23,0.24-0.32c0.09-0.1,0.2-0.18,0.32-0.23
				C121.58,42.94,121.71,42.91,121.87,42.91 M118.96,44.58l-0.48,0.02c-0.4,0.02-0.67,0.08-0.84,0.19
				c-0.16,0.11-0.24,0.28-0.24,0.48c0,0.18,0.06,0.32,0.16,0.4c0.11,0.09,0.26,0.13,0.44,0.13c0.28,0,0.51-0.08,0.69-0.23
				c0.18-0.16,0.27-0.39,0.27-0.71V44.58z M118.32,42.91c0.38,0,0.66,0.08,0.84,0.25c0.18,0.17,0.28,0.44,0.28,0.82v2.16h-0.35
				l-0.09-0.47h-0.02c-0.09,0.12-0.18,0.21-0.28,0.29c-0.1,0.08-0.21,0.14-0.34,0.18c-0.13,0.04-0.28,0.06-0.46,0.06
				c-0.19,0-0.36-0.03-0.51-0.1c-0.15-0.07-0.27-0.17-0.35-0.31c-0.09-0.14-0.13-0.31-0.13-0.52c0-0.32,0.13-0.56,0.38-0.73
				c0.25-0.17,0.63-0.26,1.15-0.28l0.55-0.02v-0.19c0-0.28-0.06-0.47-0.18-0.58c-0.12-0.11-0.28-0.17-0.5-0.17
				c-0.17,0-0.32,0.02-0.47,0.07c-0.15,0.05-0.29,0.1-0.43,0.17l-0.15-0.36c0.14-0.07,0.31-0.14,0.49-0.19
				C117.92,42.93,118.11,42.91,118.32,42.91 M116.26,46.14h-2.36v-4.23h2.36v0.43h-1.86v1.37h1.76v0.43h-1.76v1.56h1.86V46.14z"/>
			<path class="st1" d="M98.91,42.97h0.51l0.7,1.84c0.04,0.11,0.08,0.21,0.11,0.31c0.03,0.1,0.07,0.19,0.09,0.28
				c0.03,0.09,0.05,0.18,0.06,0.26h0.02c0.03-0.1,0.07-0.22,0.12-0.38c0.05-0.16,0.1-0.32,0.16-0.48l0.66-1.84h0.52l-1.38,3.63
				c-0.07,0.2-0.16,0.36-0.26,0.51c-0.1,0.14-0.22,0.26-0.35,0.33c-0.14,0.08-0.31,0.12-0.5,0.12c-0.09,0-0.17,0-0.24-0.02
				c-0.07-0.01-0.13-0.02-0.18-0.04v-0.38c0.04,0.01,0.09,0.02,0.15,0.03c0.06,0.01,0.12,0.01,0.19,0.01c0.12,0,0.22-0.02,0.31-0.07
				c0.09-0.05,0.16-0.11,0.23-0.2c0.06-0.09,0.12-0.19,0.17-0.31l0.17-0.45L98.91,42.97z M97.94,44.58l-0.48,0.02
				c-0.4,0.02-0.68,0.08-0.84,0.19c-0.16,0.11-0.24,0.28-0.24,0.48c0,0.18,0.06,0.32,0.17,0.4c0.11,0.09,0.26,0.13,0.44,0.13
				c0.28,0,0.51-0.08,0.69-0.23c0.18-0.16,0.27-0.39,0.27-0.71V44.58z M97.3,42.91c0.38,0,0.66,0.08,0.84,0.25
				c0.18,0.17,0.28,0.44,0.28,0.82v2.16h-0.35l-0.09-0.47h-0.02c-0.09,0.12-0.18,0.21-0.28,0.29c-0.1,0.08-0.21,0.14-0.33,0.18
				c-0.13,0.04-0.28,0.06-0.46,0.06c-0.19,0-0.36-0.03-0.51-0.1c-0.15-0.07-0.27-0.17-0.35-0.31c-0.09-0.14-0.13-0.31-0.13-0.52
				c0-0.32,0.13-0.56,0.38-0.73c0.25-0.17,0.63-0.26,1.15-0.28l0.55-0.02v-0.19c0-0.28-0.06-0.47-0.18-0.58
				c-0.12-0.11-0.28-0.17-0.5-0.17c-0.17,0-0.33,0.02-0.48,0.07c-0.15,0.05-0.29,0.1-0.43,0.17l-0.15-0.36
				c0.14-0.07,0.31-0.14,0.49-0.19C96.9,42.93,97.1,42.91,97.3,42.91 M93.69,45.8c0.34,0,0.58-0.1,0.72-0.29
				c0.14-0.19,0.21-0.48,0.21-0.86v-0.09c0-0.4-0.07-0.71-0.2-0.93c-0.13-0.22-0.38-0.33-0.73-0.33c-0.29,0-0.52,0.11-0.66,0.34
				c-0.15,0.23-0.22,0.54-0.22,0.93c0,0.39,0.07,0.69,0.22,0.9C93.17,45.69,93.39,45.8,93.69,45.8 M93.61,46.2
				c-0.4,0-0.72-0.14-0.95-0.41c-0.23-0.27-0.35-0.68-0.35-1.22c0-0.55,0.12-0.96,0.36-1.24c0.24-0.28,0.56-0.42,0.96-0.42
				c0.17,0,0.31,0.02,0.44,0.07c0.13,0.04,0.23,0.1,0.33,0.18c0.09,0.07,0.17,0.16,0.23,0.25h0.03c-0.01-0.06-0.01-0.14-0.02-0.25
				c-0.01-0.1-0.01-0.19-0.01-0.26v-1.27h0.48v4.51h-0.39l-0.07-0.45h-0.02c-0.06,0.09-0.14,0.18-0.23,0.26
				c-0.09,0.08-0.2,0.14-0.33,0.18C93.94,46.18,93.79,46.2,93.61,46.2 M89.24,44.55c0,0.25,0.03,0.48,0.1,0.66
				c0.07,0.19,0.17,0.33,0.31,0.43c0.14,0.1,0.32,0.15,0.54,0.15c0.22,0,0.4-0.05,0.54-0.15c0.14-0.1,0.25-0.25,0.31-0.43
				c0.07-0.19,0.1-0.41,0.1-0.66c0-0.25-0.03-0.47-0.1-0.66c-0.07-0.18-0.17-0.33-0.31-0.43c-0.14-0.1-0.32-0.15-0.55-0.15
				c-0.33,0-0.57,0.11-0.73,0.33C89.32,43.86,89.24,44.16,89.24,44.55 M91.65,44.55c0,0.26-0.03,0.49-0.1,0.7
				c-0.07,0.2-0.17,0.38-0.29,0.52c-0.13,0.14-0.28,0.25-0.46,0.32c-0.18,0.07-0.39,0.11-0.61,0.11c-0.21,0-0.41-0.04-0.58-0.11
				c-0.18-0.07-0.33-0.18-0.46-0.32c-0.13-0.14-0.23-0.31-0.3-0.52c-0.07-0.21-0.11-0.44-0.11-0.7c0-0.35,0.06-0.64,0.18-0.89
				c0.12-0.25,0.29-0.43,0.5-0.56c0.22-0.13,0.48-0.19,0.78-0.19c0.29,0,0.54,0.06,0.76,0.19c0.22,0.13,0.39,0.32,0.51,0.56
				C91.59,43.91,91.65,44.2,91.65,44.55 M87.02,46.14h-0.5v-3.8H85.2v-0.43h3.15v0.43h-1.33V46.14z M81.98,42.91
				c0.38,0,0.66,0.09,0.85,0.28c0.19,0.18,0.29,0.48,0.29,0.89v2.07h-0.47V44.1c0-0.26-0.06-0.46-0.18-0.59
				c-0.12-0.13-0.31-0.2-0.55-0.2c-0.35,0-0.6,0.1-0.74,0.3c-0.14,0.2-0.21,0.49-0.21,0.87v1.66h-0.48v-3.17h0.39l0.07,0.46h0.03
				c0.07-0.11,0.15-0.21,0.26-0.28c0.1-0.08,0.22-0.13,0.35-0.17C81.7,42.93,81.84,42.91,81.98,42.91 M79.49,42.91
				c0.06,0,0.13,0,0.2,0.01c0.07,0.01,0.13,0.02,0.18,0.03l-0.06,0.45c-0.05-0.01-0.11-0.02-0.17-0.03
				c-0.06-0.01-0.12-0.01-0.18-0.01c-0.13,0-0.25,0.03-0.36,0.08c-0.11,0.05-0.21,0.12-0.3,0.22c-0.08,0.09-0.15,0.21-0.2,0.34
				c-0.05,0.13-0.07,0.28-0.07,0.45v1.7h-0.48v-3.17h0.4l0.05,0.58h0.02c0.07-0.12,0.15-0.23,0.24-0.32c0.09-0.1,0.2-0.18,0.32-0.23
				C79.21,42.94,79.34,42.91,79.49,42.91 M76.59,44.58L76.1,44.6c-0.4,0.02-0.67,0.08-0.84,0.19c-0.16,0.11-0.24,0.28-0.24,0.48
				c0,0.18,0.06,0.32,0.17,0.4c0.11,0.09,0.26,0.13,0.44,0.13c0.28,0,0.51-0.08,0.69-0.23c0.18-0.16,0.27-0.39,0.27-0.71V44.58z
				 M75.95,42.91c0.38,0,0.66,0.08,0.84,0.25c0.18,0.17,0.28,0.44,0.28,0.82v2.16h-0.35l-0.09-0.47H76.6
				c-0.09,0.12-0.18,0.21-0.28,0.29c-0.1,0.08-0.21,0.14-0.33,0.18c-0.13,0.04-0.28,0.06-0.46,0.06c-0.19,0-0.36-0.03-0.51-0.1
				c-0.15-0.07-0.27-0.17-0.35-0.31c-0.09-0.14-0.13-0.31-0.13-0.52c0-0.32,0.13-0.56,0.38-0.73c0.25-0.17,0.63-0.26,1.15-0.28
				l0.55-0.02v-0.19c0-0.28-0.06-0.47-0.18-0.58c-0.12-0.11-0.28-0.17-0.5-0.17c-0.17,0-0.33,0.02-0.48,0.07
				c-0.15,0.05-0.29,0.1-0.43,0.17l-0.15-0.36c0.14-0.07,0.31-0.14,0.49-0.19C75.55,42.93,75.74,42.91,75.95,42.91 M72.64,43.3
				c-0.26,0-0.46,0.08-0.61,0.25c-0.15,0.17-0.24,0.4-0.27,0.71h1.68c0-0.19-0.03-0.36-0.09-0.5c-0.06-0.14-0.14-0.26-0.26-0.34
				C72.97,43.34,72.83,43.3,72.64,43.3 M72.65,42.91c0.27,0,0.5,0.06,0.69,0.18c0.19,0.12,0.34,0.29,0.44,0.5
				c0.1,0.22,0.15,0.47,0.15,0.76v0.3h-2.19c0.01,0.37,0.1,0.66,0.28,0.85c0.18,0.19,0.43,0.29,0.76,0.29c0.2,0,0.38-0.02,0.53-0.06
				c0.15-0.04,0.31-0.09,0.48-0.16v0.42c-0.16,0.07-0.32,0.12-0.48,0.16c-0.16,0.03-0.34,0.05-0.56,0.05c-0.3,0-0.57-0.06-0.8-0.19
				c-0.23-0.12-0.4-0.31-0.53-0.55c-0.12-0.24-0.19-0.54-0.19-0.89c0-0.34,0.06-0.64,0.17-0.89c0.12-0.25,0.28-0.44,0.49-0.58
				C72.12,42.98,72.37,42.91,72.65,42.91 M68.41,46.14v-4.23h0.49v3.79h1.88v0.44H68.41z"/>
			<path class="st2" d="M58.12,46.41c0.85-0.13,1.47-0.15,2.25,0.14c1.01,0.37,1.12,0.77,1.56,1.02c0-0.85,0.13-4.74-0.11-5.21
				c-0.44-0.82-2.24-1.84-3.68-1.22L58.12,46.41z"/>
			<path class="st2" d="M62.28,47.38c1.13-0.96,1.81-1.2,3.55-0.97l-0.04-5.27c-1.48-0.66-3.28,0.46-3.67,1.28
				c-0.21,0.43-0.09,4.36-0.09,5.15L62.28,47.38z"/>
			<path class="st3" d="M57.38,41.46c-0.17,0.39-0.08,4.72-0.07,5.85c1.93-0.21,2.58,0,4.32,0.31c-0.01-0.02-0.03-0.06-0.04-0.05
				l-0.13-0.13c-0.05-0.04-0.13-0.09-0.18-0.13c-0.11-0.07-0.25-0.15-0.38-0.22c-0.26-0.14-0.57-0.25-0.88-0.34
				c-0.77-0.21-1.37-0.14-2.11-0.03l-0.02-5.29L57.38,41.46z"/>
			<path class="st3" d="M62.31,47.62c1.75-0.33,2.39-0.48,4.31-0.31c0.02-0.99,0-1.98,0-2.97c0-1.46,0.06-2.19-0.06-2.88l-0.51-0.03
				l-0.02,5.29c-0.79-0.1-1.28-0.2-2.11,0.03c-0.54,0.15-0.83,0.29-1.26,0.56L62.31,47.62z"/>
			<path class="st3" d="M107.49,39.37c-0.67,0.04-1.27,0.18-1.86,0.48c-0.51,0.26-0.74,0.44-1.12,0.78
				c-0.24,0.21-0.57,0.63-0.73,0.88c-1.1,1.7-0.97,3.96,0.31,5.51c0.05,0.06,0.09,0.1,0.14,0.16l0.21,0.22
				c0.03,0.03,0.05,0.05,0.08,0.07c0.36,0.36,0.97,0.73,1.43,0.91c0.58,0.23,1.29,0.39,1.99,0.34c0.98-0.06,1.85-0.37,2.58-0.93
				c0.23-0.18,0.29-0.24,0.47-0.41c0.07-0.06,0.16-0.17,0.22-0.23c0.02-0.02,0.05-0.05,0.07-0.08c0.15-0.19,0.23-0.29,0.37-0.5
				c0.52-0.81,0.78-1.75,0.74-2.76c-0.03-0.71-0.22-1.31-0.48-1.86c-0.18-0.37-0.44-0.75-0.71-1.05l-0.29-0.3
				c-0.26-0.23-0.34-0.3-0.66-0.51C109.48,39.61,108.46,39.31,107.49,39.37 M107.58,40.06c0.83-0.04,1.68,0.23,2.33,0.66
				c0.14,0.09,0.3,0.21,0.42,0.32c0.04,0.04,0.08,0.08,0.13,0.12c0.16,0.14,0.34,0.35,0.47,0.53c0.46,0.63,0.74,1.38,0.77,2.22
				c0.04,1.09-0.4,2.16-1.1,2.88c-0.32,0.33-0.66,0.59-1.16,0.84c-0.46,0.23-1.01,0.37-1.6,0.39c-1.33,0.05-2.59-0.59-3.36-1.64
				c-0.45-0.62-0.74-1.4-0.76-2.22c-0.01-0.61,0.1-1.19,0.31-1.68c0.31-0.72,0.74-1.23,1.33-1.67
				C106,40.35,106.74,40.11,107.58,40.06"/>
			<path class="st2" d="M108.05,42.35c0.09,0.01,0.21,0.06,0.28,0.09c0.27,0.14,0.37,0.37,0.4,0.7c0.03,0.01,0.65,0.01,0.71,0
				c0.01-0.63-0.33-1.1-0.83-1.32c-0.09-0.04-0.17-0.07-0.26-0.09c-0.09-0.03-0.28-0.06-0.3-0.06l0-0.54l-0.67,0l0,0.53
				c-0.03,0.01-0.11,0.02-0.14,0.02c-0.14,0.02-0.26,0.06-0.38,0.11c-0.49,0.21-0.82,0.6-0.82,1.16c-0.01,0.75,0.5,1.04,1.09,1.22
				c0.05,0.02,0.22,0.05,0.26,0.07l0,1.48c-0.1-0.01-0.24-0.08-0.32-0.12c-0.19-0.1-0.33-0.26-0.41-0.46
				c-0.07-0.18-0.05-0.28-0.07-0.37l-0.7,0c0,0.25,0.04,0.47,0.12,0.68c0.08,0.21,0.19,0.35,0.31,0.48
				c0.18,0.19,0.49,0.35,0.76,0.43l0.24,0.05c0.04,0.01,0.07,0,0.08,0.02l0,0.53l0.67,0v-0.52c0.42-0.02,0.81-0.21,1.04-0.41
				c0.23-0.2,0.46-0.53,0.46-0.99c0-0.22-0.05-0.43-0.14-0.59c-0.1-0.18-0.2-0.28-0.33-0.39c-0.25-0.21-0.65-0.31-0.97-0.4
				c-0.07-0.02-0.05-0.01-0.06-0.03L108.05,42.35z M107.37,43.48c-0.13-0.02-0.35-0.11-0.44-0.17c-0.13-0.08-0.2-0.19-0.19-0.41
				c0.01-0.32,0.32-0.53,0.64-0.57V43.48z M108.05,44.41c0.15,0.03,0.42,0.14,0.53,0.21c0.15,0.1,0.26,0.22,0.26,0.47
				c0,0.41-0.38,0.64-0.79,0.68L108.05,44.41z"/>
			<polygon class="st4" points="37.37,41.03 40.49,40.43 41.61,41.72 39.78,43.67 			"/>
			<polygon class="st5" points="33.12,33.34 36.85,39.76 39.21,39.14 41.9,39.76 44.34,37.42 46.1,33.01 42.75,31.73 39.12,31.73 
				35.16,31.73 			"/>
			<polygon class="st6" points="52.87,7.65 52.87,4.1 26.32,4.1 26.32,9.22 55.78,9.22 55.78,20.48 23.41,20.48 23.41,14.16 
				26.32,14.16 26.32,17.57 52.87,17.57 52.87,12.12 23.41,12.12 23.41,1.19 55.78,1.19 55.78,7.65 			"/>
			<rect x="40.47" y="13.97" class="st7" width="10.48" height="1.94"/>
			<rect x="34.45" y="13.97" class="st7" width="1.98" height="1.94"/>
			<rect x="29.92" y="13.97" class="st7" width="1.98" height="1.94"/>
			<rect x="29.92" y="5.69" class="st7" width="10.48" height="1.94"/>
			<rect x="44.43" y="5.69" class="st7" width="1.98" height="1.94"/>
			<rect x="48.96" y="5.69" class="st7" width="1.98" height="1.94"/>
			<path class="st6" d="M45.27,33.3c-0.07,0-0.14,0-0.21-0.01c-1.11-0.05-2-0.42-2.66-0.81c-0.06-0.04-0.12-0.07-0.17-0.11
				l-0.09,0.06c-0.66,0.47-1.62,0.9-2.83,0.86c-1.11-0.04-1.97-0.47-2.57-0.9l-0.02-0.02c-0.08,0.05-0.17,0.1-0.26,0.15
				c-0.72,0.4-1.7,0.77-2.91,0.77l5.82,9.66L45.27,33.3z M46.81,30.19c0.42-0.23,0.66-0.48,0.72-0.54l8.53-8.83L39.36,48.18
				L23.27,21.49l8.03,8.15c0.07,0.07,0.3,0.3,0.7,0.53c0.38,0.22,0.91,0.42,1.54,0.43c0.66,0.01,1.21-0.19,1.6-0.42
				c0.39-0.22,0.64-0.46,0.71-0.54l1.11-1.13l0.94,1.28c0.03,0.04,0.17,0.22,0.44,0.42c0.26,0.19,0.62,0.37,1.07,0.39
				c0.5,0.02,0.9-0.17,1.19-0.37c0.3-0.21,0.45-0.41,0.48-0.44l0.95-1.29l1.11,1.15c0.08,0.08,0.3,0.3,0.65,0.51
				c0.35,0.21,0.82,0.4,1.4,0.43C45.85,30.63,46.41,30.42,46.81,30.19"/>
			<path class="st6" d="M40.91,41.51c-0.1-0.06-0.29-0.16-0.56-0.25c-0.27-0.09-0.6-0.16-0.97-0.14c-0.36,0.01-0.66,0.09-0.9,0.18
				c-0.23,0.09-0.42,0.2-0.52,0.27l-1.47-2.27c0.2-0.13,0.55-0.34,1.03-0.52c0.48-0.18,1.07-0.34,1.77-0.36
				c0.76-0.03,1.4,0.1,1.91,0.27c0.5,0.17,0.89,0.38,1.1,0.51L40.91,41.51z"/>
			<path class="st8" d="M103.63,33.66c-1.6,0-2.75-0.76-3.48-2.25l-2.95,1.46c0.48,1.29,1.29,2.28,2.43,2.95
				c1.13,0.68,2.47,1.01,4.01,1.01c1.18,0,2.3-0.2,3.33-0.63c1.04-0.43,1.87-1.06,2.5-1.89c0.64-0.84,0.94-1.85,0.94-3.03
				c0-1.99-0.94-3.38-2.83-4.19c1.62-0.89,2.43-2.25,2.43-4.09c0-1.09-0.28-2-0.84-2.73c-0.56-0.73-1.31-1.29-2.27-1.67
				c-0.96-0.38-2-0.58-3.13-0.6c-1.54,0-2.88,0.38-4.03,1.16c-1.17,0.78-1.95,1.89-2.35,3.33l3.11,1.13
				c0.25-0.73,0.65-1.31,1.21-1.74c0.55-0.43,1.21-0.66,1.95-0.66c0.73,0,1.33,0.2,1.82,0.61c0.48,0.4,0.73,0.93,0.73,1.62
				c0,0.86-0.31,1.49-0.94,1.89c-0.63,0.41-1.44,0.61-2.42,0.61h-1.07v2.63h1.12c2.45,0,3.66,0.83,3.66,2.5
				c0,0.83-0.28,1.47-0.83,1.92c-0.56,0.46-1.27,0.68-2.12,0.68L103.63,33.66z M87.88,33.64c-1.65,0-2.95-0.76-3.94-2.3l-2.65,1.97
				c0.58,1.09,1.44,1.95,2.6,2.58c1.17,0.63,2.53,0.96,4.11,0.96c1.49,0,2.73-0.25,3.73-0.78c1.02-0.53,1.77-1.21,2.25-2.05
				c0.48-0.83,0.74-1.72,0.74-2.65c0-1.09-0.23-2-0.71-2.73c-0.48-0.74-1.14-1.34-1.97-1.82c-0.84-0.48-1.9-0.94-3.18-1.37
				c-0.81-0.28-1.41-0.5-1.84-0.7c-0.43-0.21-0.74-0.43-0.94-0.71c-0.2-0.28-0.3-0.63-0.3-1.06c0-0.54,0.2-0.96,0.58-1.32
				c0.38-0.35,0.94-0.53,1.67-0.53c0.78,0,1.44,0.15,2,0.46c0.55,0.3,1.11,0.85,1.66,1.64l2.65-1.97c-1.34-2.25-3.43-3.38-6.29-3.38
				c-1.26,0-2.35,0.23-3.28,0.71c-0.94,0.48-1.65,1.08-2.12,1.84c-0.48,0.76-0.7,1.57-0.7,2.43c0,1.54,0.48,2.75,1.41,3.63
				c0.94,0.88,2.33,1.59,4.14,2.15c1.24,0.38,2.1,0.73,2.58,1.08c0.48,0.36,0.73,0.86,0.73,1.55c0,0.68-0.25,1.21-0.76,1.59
				c-0.5,0.38-1.24,0.56-2.2,0.56L87.88,33.64z M75.23,18.37V30.1l-10.2-11.73h-2.43v18.17h3.53V24.83l10.22,11.71h2.42V18.37H75.23
				z"/>
			<path class="st9" d="M149.68,32.63c-0.45-0.71-0.68-1.59-0.68-2.65V18.56h-3.58v12.12c0,1.23,0.28,2.32,0.83,3.26
				c0.56,0.93,1.32,1.64,2.28,2.14c0.96,0.51,2.05,0.76,3.23,0.76c1.18,0,2.27-0.25,3.23-0.76c0.96-0.5,1.72-1.21,2.28-2.14
				c0.55-0.94,0.83-2.05,0.83-3.31v-7.8h-3.61v7.12c0,1.09-0.23,1.97-0.69,2.65c-0.45,0.68-1.16,1.03-2.1,1.03
				c-0.93,0-1.61-0.35-2.07-1.06L149.68,32.63z M136.92,31.7c-1.09,1.01-2.63,1.51-4.65,1.51h-2.09V21.7h2.14
				c1.95,0,3.46,0.53,4.57,1.56c1.11,1.04,1.67,2.45,1.67,4.24c0,1.77-0.53,3.16-1.62,4.16L136.92,31.7z M137.88,19.56
				c-1.52-0.79-3.38-1.19-5.63-1.19h-5.88v18.17h6.08c2.12,0,3.93-0.38,5.43-1.16c1.49-0.79,2.6-1.85,3.36-3.21
				c0.76-1.37,1.14-2.93,1.14-4.67c0-1.77-0.36-3.33-1.09-4.69c-0.73-1.37-1.85-2.45-3.36-3.23L137.88,19.56z M116.67,21.62h7.19
				v-3.26h-10.95v18.17h10.95v-3.26h-7.19v-4.49h6v-3.16h-6V21.62z"/>
			<path class="st4" d="M162.17,36.66c0.49,0.52,1.11,0.78,1.83,0.78c0.71,0,1.33-0.26,1.82-0.78c0.49-0.53,0.75-1.15,0.75-1.86
				c0-0.72-0.26-1.34-0.75-1.87c-0.49-0.52-1.11-0.78-1.82-0.78c-0.72,0-1.34,0.26-1.83,0.78c-0.49,0.53-0.75,1.15-0.75,1.87
				C161.42,35.51,161.68,36.13,162.17,36.66"/>
			<rect x="154.52" y="8.43" class="st9" width="3.61" height="14.46"/>
			<path class="st10" d="M65.58,14h5.15c0.21,0,0.96-0.41,1.23-0.55c0.66-0.33,1.65-0.58,1.65-1.39V8.24c0-0.71-0.71-0.93-1.21-1.18
				c-0.15-0.07-0.25-0.13-0.39-0.2c-0.09-0.04-0.11-0.05-0.2-0.08l-0.63-0.31C71.05,6.4,70.9,6.3,70.72,6.3h-5.15
				c-0.17,0-0.29,0.16-0.29,0.32v2.26c0,0.16,0.33,0.1,0.48,0.1c0.43,0,0.88-0.07,1.09,0.14c0.11,0.1,0.2,0.21,0.2,0.41v1.23
				c0,0.37-0.3,0.55-0.65,0.55l-0.91,0c-0.12,0-0.23-0.02-0.23,0.1v2.26C65.28,13.84,65.4,14,65.58,14 M71.24,11.64V8.66
				c0-0.39,0.55-0.31,0.55-0.07v3.11C71.79,11.94,71.24,12.03,71.24,11.64 M61.18,9.86h-1.2v0.58h1.2V9.86z M61.18,11.02h-1.2v0.62
				h1.2V11.02z M61.18,8.66h-1.2v0.62h1.2V8.66z M75.41,8.95h-1.23v2.39h1.23l0,0.7h82.72l0-3.61H75.41V8.95z M63.64,10.76h2.85
				V9.53h-2.85c-0.39,0-0.71,0.23-0.71,0.62C62.92,10.53,63.24,10.76,63.64,10.76 M60.3,13.13h4.33c0.08,0,0.1-0.02,0.1-0.1
				c0-1.93,0.12-1.72-0.36-1.71c-0.35,0-1.03,0.04-1.28-0.08c-1.04-0.47-0.93-1.78-0.02-2.17c0.56-0.23,1.66,0.07,1.66-0.18V7.27
				c0-0.08-0.02-0.1-0.1-0.1H60.3c-0.23,0-0.3,0.13-0.32,0.32V8v0.08c1.02,0,1.78-0.19,1.78,0.74v2.66c0,0.93-0.76,0.74-1.78,0.74
				v0.08v0.5C60,12.99,60.08,13.13,60.3,13.13 M72.76,11.31c-0.22,0-0.36-0.08-0.36-0.36V9.34c0-0.48,0.58-0.46,0.58-0.07v1.75
				C72.99,11.15,72.88,11.31,72.76,11.31"/>
		</g>
	</g>
</g>
</svg>
